<svg width="800" height="600" viewBox="0 0 800 600" fill="none" xmlns="http://www.w3.org/2000/svg">
  <path d="M732 115C740 224 664 294 604 357C542 421 494 480 416 501C338 523 232 507 166 451C101 394 77 297 77 208C76 118 99 27 167 -15C235 -58 348 -51 455 -31C563 -10 724 6 732 115Z" fill="#FFBF6933"/>
  <path d="M587 203C591 275 525 330 470 370C414 410 365 441 303 434C240 427 164 382 141 314C117 247 148 159 212 120C277 80 375 89 451 106C526 124 584 132 587 203Z" fill="#2EC4B633"/>
  <circle cx="646" cy="424" r="62" fill="#FF6B6B2A"/>
  <circle cx="109" cy="489" r="42" fill="#4D96FF2A"/>
</svg>
