<svg xmlns="http://www.w3.org/2000/svg" viewBox="0 0 120 120" role="img" aria-label="Atelier Buddy Hamster">
  <defs>
    <style>
      .o{stroke:#1f160f;stroke-width:4;stroke-linecap:round;stroke-linejoin:round}
    </style>
  </defs>
  <g transform="translate(0 2)">
    <ellipse cx="38" cy="24" rx="12" ry="14" fill="#f791c3" class="o"/>
    <ellipse cx="82" cy="24" rx="12" ry="14" fill="#f791c3" class="o"/>
    <ellipse cx="38" cy="24" rx="5" ry="6" fill="#f6bc3f" class="o"/>
    <ellipse cx="82" cy="24" rx="5" ry="6" fill="#f6bc3f" class="o"/>
    <ellipse cx="60" cy="56" rx="30" ry="30" fill="#f6bc3f" class="o"/>
    <ellipse cx="60" cy="64" rx="20" ry="16" fill="#ffe8ce" class="o"/>
    <circle cx="50" cy="52" r="3.5" fill="#1f160f"/>
    <circle cx="70" cy="52" r="3.5" fill="#1f160f"/>
    <ellipse cx="60" cy="60" rx="5" ry="4" fill="#e63c23" class="o"/>
    <path d="M60 64v6" class="o" fill="none"/>
    <path d="M60 70c-6 0-9 4-9 7m9-7c6 0 9 4 9 7" class="o" fill="none"/>
    <rect x="36" y="86" width="16" height="12" rx="4" fill="#5c30ff" class="o"/>
    <rect x="68" y="86" width="16" height="12" rx="4" fill="#5c30ff" class="o"/>
  </g>
</svg>
